<svg xmlns="http://www.w3.org/2000/svg" version="1.1" xmlns:xlink="http://www.w3.org/1999/xlink" xmlns:svgjs="http://svgjs.dev/svgjs" width="100%" height="100%" viewBox="0 0 1000 600"><rect width="1000" height="600" x="0" y="0" fill="#181531"/><g><rect width="333.3333333333333" height="333.3333333333333" rx="13.333333333333334" ry="13.333333333333334" y="278.93509780747996" fill="#ffffff" transform="matrix(0.48692520008788204,0,0,0.486925200087882,0,83.02524189588598)" x="256.7127380371094"/><path d="M365.76054767984965 385.3434195802201L365.76054767984965 385.3434195802201Q362.1102293218577 385.3434195802201 359.49884772729416 386.57891194754046Q356.85938676074613 387.78632494287626 356.85938676074613 389.61148412187225L356.85938676074613 389.61148412187225Q354.4445607700745 398.09145446120755 354.4445607700745 440.2385918100228Q354.4445607700745 482.3857291588381 354.2480051661826 487.4400161160578L354.2480051661826 487.4400161160578Q358.06679975608193 493.5051604647214 366.15365888763347 493.5051604647214L366.15365888763347 493.5051604647214Q380.530297343725 493.5051604647214 387.80285468772445 477.6403152934485Q395.0754120317239 461.7754701221756 395.0754120317239 437.8237658193512Q395.0754120317239 413.87206151652674 387.9994102916163 399.60774054837344Q380.9234085515087 385.3434195802201 365.76054767984965 385.3434195802201ZM327.1514112010882 518.5800396469281L327.1514112010882 518.5800396469281Q324.11883902675635 518.1869284391443 324.11883902675635 516.754880467932L324.11883902675635 516.754880467932L324.70850583843196 514.3400544772603Q329.76279279565165 503.41717877526895 329.76279279565165 435.6897335485251L329.76279279565165 435.6897335485251Q329.76279279565165 403.3422970223191 328.0499511045939 395.25543789076755Q326.3371094135361 387.1685787592161 325.32625202209215 384.9503083724363L325.32625202209215 384.9503083724363L324.31539463064826 382.9285935895484Q323.50109284309616 382.11429180199633 323.50109284309616 380.59800571483044Q323.50109284309616 379.08171962766454 325.94399820575234 378.07086223622065L325.94399820575234 378.07086223622065Q341.69652588908707 371.8091622836651 367.3891512549538 371.8091622836651L367.3891512549538 371.8091622836651Q421.3577042092663 371.8091622836651 421.3577042092663 440.5474649018529L421.3577042092663 440.5474649018529Q421.3577042092663 467.44750326305547 411.8668764784871 489.6863658748221L411.8668764784871 489.6863658748221Q408.0200025166032 498.16633621415735 402.9657155593835 504.3437980507592Q397.9114286021638 510.4931805153765 389.7122519826741 514.6489275690905Q381.5411547351689 518.7765952508198 371.62913642462144 518.7765952508198L371.62913642462144 518.7765952508198Q369.60742164173354 518.5800396469281 366.4625319794635 518.1869284391443Q363.34572168917805 517.765737859376 357.1682598525762 515.1543562648123Q350.99079801597435 512.5148952982644 348.7725276291946 508.27491012859673L348.7725276291946 508.27491012859673Q341.3034146813033 518.5800396469281 327.1514112010882 518.5800396469281ZM493.74632518544604 404.353154413763L493.74632518544604 404.353154413763L494.53254760101356 398.09145446120755Q494.53254760101356 388.7971823343202 487.2599902570141 386.1577213677721L487.2599902570141 386.1577213677721Q481.61603648811877 384.3325621887761 478.583464313787 384.3325621887761L478.583464313787 384.3325621887761L478.35882933791055 384.3325621887761Q472.2936849892469 384.3325621887761 467.8571442156874 386.2700388557103Q463.4206034421279 388.17943615066 461.39888865924 391.01545272109996L461.39888865924 391.01545272109996Q457.13082411758785 396.8840414658717 456.5411573059122 403.3422970223191L456.5411573059122 403.3422970223191Q456.5411573059122 411.0360449460868 463.4206034421279 416.5957605990285Q470.271970206359 422.15547625197013 480.09975040095287 426.28314393369953Q489.89945122356215 430.4388909874135 499.69915204617143 435.2966223407413Q509.4988528687807 440.15435369406913 516.3782990049964 449.2520702170646Q523.2577451412121 458.34978674006004 523.2577451412121 471.0697422490629L523.2577451412121 471.0697422490629Q523.2577451412121 495.9480658273776 507.58945557383106 508.27491012859673Q491.92116600645 520.6017544298159 472.0128912694014 520.6017544298159Q452.07653716036816 520.6017544298159 439.0477085595352 511.6163553947586Q426.0188799587022 502.60287698771685 426.0188799587022 487.4400161160578L426.0188799587022 487.4400161160578L426.0188799587022 487.24346051216594Q426.0188799587022 479.7743475642746 428.3213884614356 474.21463191133296Q430.65197633615355 468.6549162583913 433.88110411437725 466.01545529184324L433.88110411437725 466.01545529184324Q440.5639946467011 460.56805712683973 446.0113928117045 460.14686654707145L446.0113928117045 460.14686654707145L448.4542981743607 459.9503109431796Q454.09825194325606 459.9503109431796 458.75942769269193 462.6740100256813Q463.4206034421279 465.42578848016757 463.4206034421279 470.25544046151083L463.4206034421279 470.25544046151083Q463.4206034421279 472.698345824167 460.7811424755798 474.29887002728657Q458.14168150903174 475.9274736023907 456.23228421408214 479.1566013806144Q454.32288691913243 482.3857291588381 454.09825194325606 484.6320789176024L454.09825194325606 484.6320789176024L453.7051407354723 486.8503493043822Q453.7051407354723 499.1771936056013 465.0211276452475 503.22062317137704L465.0211276452475 503.22062317137704Q469.0645572110232 504.62459177060475 471.5074625736794 504.62459177060475L471.5074625736794 504.62459177060475Q482.6268938795627 504.62459177060475 489.3940225278402 497.9697806102655Q496.16115117611764 491.2868900779417 496.16115117611764 480.9817605596104L496.16115117611764 480.9817605596104Q496.16115117611764 468.6549162583913 485.6594660538945 460.9611683346235L485.6594660538945 460.9611683346235Q477.76916252623494 455.3172145657282 468.55912851530127 451.47034060384436Q459.3771738763521 447.6234666419605 456.1199667261439 445.99486306685634Q452.8908389479202 444.3943388637368 449.2685999619128 442.176068476957Q445.61828160392076 439.9297187181927 441.18174083036126 435.88628915241696L441.18174083036126 435.88628915241696Q431.46627812370565 427.4063188130817 431.46627812370565 412.94544224103646Q431.46627812370565 398.48456566899125 439.3565816513653 388.6006267304283L439.3565816513653 388.6006267304283Q453.5085851315804 370.6017492883293 481.8125920920106 370.6017492883293L481.8125920920106 370.6017492883293Q496.77889735977783 370.6017492883293 507.08402687810906 376.35802054516284Q517.3891563964404 382.11429180199633 517.3891563964404 392.2228657164357L517.3891563964404 392.2228657164357Q517.3891563964404 399.4954230604352 513.2334093427264 404.353154413763Q509.10574166099696 409.2108857670908 502.61940673256504 409.2108857670908L502.61940673256504 409.2108857670908Q499.58683455823325 409.2108857670908 496.66657987183964 408.003472771755Q493.74632518544604 406.79605977641916 493.74632518544604 404.353154413763Z " fill="#2c256b" transform="matrix(0.48692520008788204,0,0,0.486925200087882,0,83.02524189588598)"/><path d="M715.1849748152426 385.1850826262646L715.1849748152426 385.1850826262646Q711.5738637041314 385.1850826262646 708.9905303707981 386.40730484848683Q706.379419259687 387.6017492929313 706.379419259687 389.40730484848683L706.379419259687 389.40730484848683Q703.9905303707981 397.79619373737575 703.9905303707981 439.49063818182015Q703.9905303707981 481.1850826262646 703.7960859263537 486.1850826262646L703.7960859263537 486.1850826262646Q707.5738637041314 492.1850826262646 715.5738637041314 492.1850826262646L715.5738637041314 492.1850826262646Q729.7960859263537 492.1850826262646 736.9905303707981 476.49063818182015Q744.1849748152425 460.7961937373757 744.1849748152425 437.1017492929313Q744.1849748152425 413.40730484848683 737.1849748152425 399.29619373737575Q730.1849748152425 385.1850826262646 715.1849748152426 385.1850826262646ZM676.9905303707981 516.9906381818201L676.9905303707981 516.9906381818201Q673.9905303707981 516.6017492929313 673.9905303707981 515.1850826262646L673.9905303707981 515.1850826262646L674.5738637041314 512.7961937373757Q679.5738637041314 501.99063818182015 679.5738637041314 434.99063818182015L679.5738637041314 434.99063818182015Q679.5738637041314 402.99063818182015 677.879419259687 394.99063818182015Q676.1849748152426 386.99063818182015 675.1849748152426 384.79619373737575L675.1849748152426 384.79619373737575L674.1849748152426 382.7961937373757Q673.379419259687 381.99063818182015 673.379419259687 380.49063818182015Q673.379419259687 378.99063818182015 675.7960859263537 377.99063818182015L675.7960859263537 377.99063818182015Q691.379419259687 371.79619373737575 716.7960859263537 371.79619373737575L716.7960859263537 371.79619373737575Q770.1849748152425 371.79619373737575 770.1849748152425 439.7961937373757L770.1849748152425 439.7961937373757Q770.1849748152425 466.40730484848683 760.7960859263537 488.40730484848683L760.7960859263537 488.40730484848683Q756.9905303707981 496.7961937373757 751.9905303707981 502.90730484848683Q746.9905303707981 508.99063818182015 738.879419259687 513.1017492929313Q730.7960859263537 517.1850826262646 720.9905303707981 517.1850826262646L720.9905303707981 517.1850826262646Q718.9905303707981 516.9906381818201 715.879419259687 516.6017492929313Q712.7960859263537 516.1850826262646 706.6849748152426 513.6017492929313Q700.5738637041314 510.99063818182015 698.379419259687 506.79619373737575L698.379419259687 506.79619373737575Q690.9905303707981 516.9906381818201 676.9905303707981 516.9906381818201ZM797.1849748152425 463.99063818182015L797.1849748152425 463.99063818182015L797.379419259687 468.9906381818202Q797.379419259687 470.1850826262646 798.9905303707982 470.1850826262646L798.9905303707982 470.1850826262646Q805.379419259687 469.6017492929313 810.1849748152425 466.90730484848683Q814.9905303707982 464.1850826262646 817.379419259687 460.7961937373757L817.379419259687 460.7961937373757Q822.1849748152425 453.40730484848683 822.5738637041314 447.99063818182015L822.5738637041314 447.99063818182015L822.7960859263537 445.6017492929313Q822.7960859263537 434.7961937373757 814.1849748152425 434.7961937373757L814.1849748152425 434.7961937373757Q807.7960859263536 434.7961937373757 803.7960859263536 440.40730484848683L803.7960859263536 440.40730484848683Q797.1849748152425 449.1850826262646 797.1849748152425 463.99063818182015ZM840.7960859263536 490.6017492929313L840.7960859263536 490.6017492929313Q840.7960859263536 498.18508262626455 837.6849748152425 503.90730484848683Q834.5738637041314 509.6017492929313 830.6849748152425 512.2961937373757Q826.7960859263536 514.9906381818201 821.5738637041314 516.6017492929313L821.5738637041314 516.6017492929313Q814.9905303707982 518.6017492929313 808.9905303707981 518.6017492929313L808.9905303707981 518.6017492929313Q792.1849748152425 518.6017492929313 784.1849748152425 505.99063818182015Q776.1849748152425 493.40730484848683 776.1849748152425 473.90730484848683Q776.1849748152425 454.40730484848683 786.0738637041314 439.1850826262646Q795.9905303707981 423.99063818182015 815.7960859263536 423.99063818182015L815.7960859263536 423.99063818182015Q833.7960859263536 423.99063818182015 840.1849748152425 436.6017492929313L840.1849748152425 436.6017492929313Q842.7960859263536 441.40730484848683 842.7960859263536 445.6850826262646Q842.7960859263536 449.99063818182015 842.379419259687 452.49063818182015Q841.9905303707982 454.99063818182015 839.5738637041314 459.99063818182015Q837.1849748152425 464.99063818182015 833.1849748152425 468.9906381818202Q829.1849748152425 472.99063818182015 820.5738637041314 476.6017492929313Q811.9905303707982 480.1850826262646 800.379419259687 481.40730484848683L800.379419259687 481.40730484848683Q798.7960859263536 481.40730484848683 798.7960859263536 482.79619373737575L798.7960859263536 482.79619373737575Q798.7960859263536 484.6017492929313 800.0738637041314 488.1017492929313Q801.379419259687 491.6017492929313 802.9905303707982 493.99063818182015L802.9905303707982 493.99063818182015Q807.379419259687 499.6017492929313 815.9905303707982 499.6017492929313L815.9905303707982 499.6017492929313Q824.5738637041314 499.6017492929313 830.5738637041314 493.99063818182015L830.5738637041314 493.99063818182015Q833.7960859263536 490.99063818182015 835.7960859263536 486.6017492929313L835.7960859263536 486.6017492929313Q836.5738637041314 484.99063818182015 837.8794192596871 484.99063818182015Q839.1849748152425 484.99063818182015 839.9905303707982 487.1850826262646Q840.7960859263536 489.40730484848683 840.7960859263536 490.6017492929313ZM917.1849748152425 491.7961937373757L917.1849748152425 491.7961937373757Q917.1849748152425 503.1850826262646 908.0738637041314 510.6850826262646Q898.9905303707982 518.1850826262646 886.379419259687 518.1850826262646L886.379419259687 518.1850826262646Q867.9905303707982 518.1850826262646 859.379419259687 507.1017492929313Q850.7960859263536 495.9906381818202 850.7960859263536 476.99063818182015L850.7960859263536 476.99063818182015Q850.7960859263536 456.7961937373757 859.7960859263536 441.1850826262646L859.7960859263536 441.1850826262646Q864.1849748152425 433.1850826262646 872.3794192596871 428.6017492929313Q880.5738637041314 423.99063818182015 891.5738637041314 423.99063818182015L891.5738637041314 423.99063818182015Q908.1849748152425 423.99063818182015 914.9905303707981 435.1850826262646L914.9905303707981 435.1850826262646Q917.7960859263536 439.7961937373757 917.7960859263536 445.99063818182015L917.7960859263536 445.99063818182015Q917.7960859263536 455.6017492929313 909.7960859263536 460.40730484848683L909.7960859263536 460.40730484848683Q906.5738637041314 462.1850826262646 903.879419259687 462.1850826262646Q901.1849748152425 462.1850826262646 899.4905303707981 461.90730484848683Q897.7960859263536 461.6017492929313 894.9905303707982 459.1850826262646Q892.1849748152425 456.7961937373757 892.1849748152425 452.6017492929313L892.1849748152425 452.6017492929313Q892.379419259687 450.40730484848683 895.5738637041314 448.99063818182015L895.5738637041314 448.99063818182015Q898.5738637041314 447.1850826262646 898.5738637041314 442.6017492929313L898.5738637041314 442.6017492929313Q898.5738637041314 434.7961937373757 888.9905303707981 434.7961937373757L888.9905303707981 434.7961937373757Q886.5738637041314 434.7961937373757 883.2960859263536 436.90730484848683Q879.9905303707982 438.99063818182015 877.7960859263536 442.2961937373757Q875.5738637041314 445.6017492929313 873.6849748152425 452.6850826262646Q871.7960859263536 459.7961937373757 871.7960859263536 466.2961937373757Q871.7960859263536 472.7961937373757 872.2960859263536 476.1017492929313Q872.7960859263536 479.40730484848683 874.4905303707981 485.1017492929313Q876.1849748152425 490.7961937373757 880.8794192596871 494.40730484848683Q885.5738637041314 497.99063818182015 892.5738637041314 497.99063818182015L892.5738637041314 497.99063818182015Q900.9905303707982 497.99063818182015 907.379419259687 490.99063818182015L907.379419259687 490.99063818182015Q909.9905303707981 488.1850826262646 911.5738637041314 484.1850826262646L911.5738637041314 484.1850826262646Q912.379419259687 482.60174929293123 913.5738637041314 482.60174929293123L913.5738637041314 482.60174929293123Q915.379419259687 482.60174929293123 916.2960859263536 485.90730484848683Q917.1849748152425 489.1850826262646 917.1849748152425 491.7961937373757ZM946.7960859263536 463.99063818182015L946.7960859263536 463.99063818182015L946.9905303707982 468.9906381818202Q946.9905303707982 470.1850826262646 948.5738637041314 470.1850826262646L948.5738637041314 470.1850826262646Q954.9905303707982 469.6017492929313 959.7960859263536 466.90730484848683Q964.5738637041314 464.1850826262646 966.9905303707982 460.7961937373757L966.9905303707982 460.7961937373757Q971.7960859263536 453.40730484848683 972.1849748152425 447.99063818182015L972.1849748152425 447.99063818182015L972.3794192596871 445.6017492929313Q972.3794192596871 434.7961937373757 963.7960859263536 434.7961937373757L963.7960859263536 434.7961937373757Q957.379419259687 434.7961937373757 953.379419259687 440.40730484848683L953.379419259687 440.40730484848683Q946.7960859263536 449.1850826262646 946.7960859263536 463.99063818182015ZM990.379419259687 490.6017492929313L990.379419259687 490.6017492929313Q990.379419259687 498.18508262626455 987.2960859263536 503.90730484848683Q984.1849748152425 509.6017492929313 980.2960859263536 512.2961937373757Q976.379419259687 514.9906381818201 971.1849748152425 516.6017492929313L971.1849748152425 516.6017492929313Q964.5738637041314 518.6017492929313 958.5738637041314 518.6017492929313L958.5738637041314 518.6017492929313Q941.7960859263536 518.6017492929313 933.7960859263536 505.99063818182015Q925.7960859263536 493.40730484848683 925.7960859263536 473.90730484848683Q925.7960859263536 454.40730484848683 935.6849748152425 439.1850826262646Q945.5738637041314 423.99063818182015 965.379419259687 423.99063818182015L965.379419259687 423.99063818182015Q983.379419259687 423.99063818182015 989.7960859263536 436.6017492929313L989.7960859263536 436.6017492929313Q992.379419259687 441.40730484848683 992.379419259687 445.6850826262646Q992.379419259687 449.99063818182015 991.9905303707982 452.49063818182015Q991.5738637041314 454.99063818182015 989.1849748152425 459.99063818182015Q986.7960859263536 464.99063818182015 982.7960859263536 468.9906381818202Q978.7960859263536 472.99063818182015 970.1849748152425 476.6017492929313Q961.5738637041314 480.1850826262646 949.9905303707982 481.40730484848683L949.9905303707982 481.40730484848683Q948.3794192596871 481.40730484848683 948.3794192596871 482.79619373737575L948.3794192596871 482.79619373737575Q948.3794192596871 484.6017492929313 949.6849748152425 488.1017492929313Q950.9905303707982 491.6017492929313 952.5738637041314 493.99063818182015L952.5738637041314 493.99063818182015Q956.9905303707982 499.6017492929313 965.5738637041314 499.6017492929313L965.5738637041314 499.6017492929313Q974.1849748152425 499.6017492929313 980.1849748152425 493.99063818182015L980.1849748152425 493.99063818182015Q983.379419259687 490.99063818182015 985.379419259687 486.6017492929313L985.379419259687 486.6017492929313Q986.1849748152425 484.99063818182015 987.4905303707982 484.99063818182015Q988.7960859263536 484.99063818182015 989.5738637041314 487.1850826262646Q990.379419259687 489.40730484848683 990.379419259687 490.6017492929313ZM1001.379419259687 516.1850826262646L1001.379419259687 516.1850826262646Q1004.9905303707981 494.6017492929313 1004.9905303707981 464.40730484848683Q1004.9905303707981 434.1850826262646 1003.1849748152425 425.1850826262646L1003.1849748152425 425.1850826262646Q1003.1849748152425 422.6017492929313 1009.1849748152425 422.6017492929313L1009.1849748152425 422.6017492929313Q1018.379419259687 422.6017492929313 1021.379419259687 429.60174929293123L1021.379419259687 429.60174929293123Q1021.5738637041314 430.1850826262646 1022.379419259687 430.1850826262646Q1023.1849748152425 430.1850826262646 1023.5738637041314 429.7961937373757L1023.5738637041314 429.7961937373757Q1029.7960859263535 423.40730484848683 1042.7960859263535 423.40730484848683Q1055.7960859263537 423.40730484848683 1063.379419259687 429.99063818182015Q1070.990530370798 436.6017492929313 1070.990530370798 449.1850826262646L1070.990530370798 449.1850826262646Q1070.990530370798 456.7961937373757 1069.6849748152426 470.7961937373757Q1068.379419259687 484.7961937373757 1068.379419259687 491.6017492929313L1068.379419259687 491.6017492929313Q1068.379419259687 507.7961937373757 1073.7960859263535 514.9906381818201L1073.7960859263535 514.9906381818201Q1074.5738637041313 515.9906381818201 1074.5738637041313 516.9906381818201L1074.5738637041313 516.9906381818201Q1074.5738637041313 519.6017492929313 1068.9905303707983 519.6017492929313L1068.9905303707983 519.6017492929313Q1044.1849748152426 519.6017492929313 1044.1849748152426 497.6017492929313L1044.1849748152426 497.6017492929313Q1044.1849748152426 489.1850826262646 1047.990530370798 474.1850826262646Q1051.7960859263537 459.1850826262646 1051.7960859263537 451.40730484848683L1051.7960859263537 451.40730484848683Q1051.7960859263537 435.40730484848683 1038.5738637041313 435.40730484848683L1038.5738637041313 435.40730484848683Q1032.1849748152426 435.40730484848683 1028.879419259687 439.1850826262646Q1025.5738637041313 442.99063818182015 1025.1849748152426 447.90730484848683Q1024.7960859263537 452.7961937373757 1024.7960859263537 466.40730484848683L1024.7960859263537 466.40730484848683Q1024.7960859263537 487.1850826262646 1026.1849748152426 502.6017492929313L1026.1849748152426 502.6017492929313L1026.5738637041313 506.99063818182015Q1026.5738637041313 512.6017492929313 1019.2960859263537 515.6850826262646Q1011.9905303707981 518.7961937373757 1006.6849748152425 518.7961937373757Q1001.379419259687 518.7961937373757 1001.379419259687 516.1850826262646ZM1078.1849748152426 436.79619373737575L1078.1849748152426 436.79619373737575L1078.7960859263537 428.7961937373757Q1078.990530370798 426.99063818182015 1081.5738637041313 426.99063818182015L1081.5738637041313 426.99063818182015L1088.5738637041313 426.99063818182015L1087.7960859263535 410.99063818182015L1087.7960859263535 410.1850826262646Q1087.7960859263535 405.60174929293123 1094.7960859263535 401.40730484848683Q1101.7960859263537 397.1850826262646 1107.5738637041313 397.1850826262646L1107.5738637041313 397.1850826262646Q1109.379419259687 397.1850826262646 1109.379419259687 398.79619373737575L1109.379419259687 398.79619373737575L1109.379419259687 398.99063818182015Q1108.5738637041313 404.40730484848683 1107.7960859263537 426.7961937373757L1107.7960859263537 426.7961937373757Q1116.5738637041313 426.7961937373757 1118.9905303707983 426.40730484848683Q1121.379419259687 425.99063818182015 1121.5738637041313 425.99063818182015L1121.5738637041313 425.99063818182015Q1122.990530370798 425.99063818182015 1122.990530370798 428.40730484848683Q1122.990530370798 430.79619373737575 1120.7960859263537 434.49063818182015Q1118.5738637041313 438.1850826262646 1115.990530370798 438.40730484848683L1115.990530370798 438.40730484848683L1107.5738637041313 438.40730484848683Q1107.379419259687 445.1850826262646 1107.379419259687 461.2961937373757Q1107.379419259687 477.40730484848683 1107.6849748152426 487.7961937373757Q1107.990530370798 498.18508262626455 1108.379419259687 503.49063818182015Q1108.7960859263535 508.79619373737575 1109.2960859263535 511.99063818182015Q1109.7960859263537 515.1850826262646 1110.0738637041313 516.6017492929313Q1110.379419259687 517.9906381818201 1110.379419259687 518.4073048484868L1110.379419259687 518.4073048484868Q1110.379419259687 520.4073048484868 1107.7960859263537 520.6017492929313L1107.7960859263537 520.6017492929313Q1099.990530370798 520.6017492929313 1092.2960859263535 518.4073048484868Q1084.5738637041313 516.1850826262646 1084.5738637041313 510.79619373737575L1084.5738637041313 510.79619373737575Q1088.7960859263535 477.1850826262646 1088.7960859263535 438.6017492929313L1088.7960859263535 438.6017492929313Q1083.379419259687 438.6017492929313 1080.5738637041313 438.99063818182015L1080.5738637041313 438.99063818182015L1080.379419259687 438.99063818182015Q1078.5738637041313 438.99063818182015 1078.1849748152426 436.79619373737575ZM1187.9905303707983 445.99063818182015L1186.990530370798 461.1850826262646L1187.7960859263535 468.1850826262646Q1187.7960859263535 471.9906381818202 1180.5738637041313 471.9906381818202L1180.5738637041313 471.9906381818202Q1165.990530370798 471.9906381818202 1165.990530370798 460.99063818182015L1165.990530370798 460.99063818182015Q1165.990530370798 458.40730484848683 1167.379419259687 453.7961937373757Q1168.7960859263537 449.1850826262646 1168.7960859263537 445.7961937373757Q1168.7960859263537 442.40730484848683 1166.7960859263537 439.90730484848683Q1164.7960859263535 437.40730484848683 1160.9905303707983 437.40730484848683Q1157.1849748152426 437.40730484848683 1154.4905303707983 440.1017492929313Q1151.7960859263537 442.7961937373757 1151.1849748152426 445.6017492929313L1151.1849748152426 445.6017492929313L1150.379419259687 448.40730484848683Q1149.1849748152426 454.6017492929313 1149.1849748152426 469.1017492929313Q1149.1849748152426 483.60174929293123 1149.5738637041313 491.90730484848683Q1149.990530370798 500.1850826262646 1150.379419259687 503.29619373737575Q1150.7960859263535 506.40730484848683 1150.7960859263535 506.99063818182015L1150.7960859263535 506.99063818182015Q1150.7960859263535 511.99063818182015 1144.5738637041313 515.1017492929313Q1138.379419259687 518.1850826262646 1132.1849748152426 518.1850826262646Q1125.990530370798 518.1850826262646 1125.990530370798 515.6017492929313L1125.990530370798 515.6017492929313L1126.990530370798 509.40730484848683Q1129.7960859263535 491.99063818182015 1129.7960859263535 463.99063818182015Q1129.7960859263535 435.99063818182015 1127.7960859263535 425.99063818182015L1127.7960859263535 425.99063818182015Q1127.7960859263535 423.6017492929313 1131.9905303707983 423.6017492929313L1131.9905303707983 423.6017492929313Q1142.7960859263535 423.6017492929313 1146.379419259687 430.99063818182015L1146.379419259687 430.99063818182015Q1146.5738637041313 431.7961937373757 1147.0738637041313 431.7961937373757Q1147.5738637041313 431.7961937373757 1149.7960859263537 429.99063818182015L1149.7960859263537 429.99063818182015Q1156.379419259687 424.6017492929313 1165.379419259687 424.6017492929313L1165.379419259687 424.6017492929313Q1170.990530370798 424.6017492929313 1176.5738637041313 426.7961937373757L1176.5738637041313 426.7961937373757Q1187.9905303707983 431.40730484848683 1187.9905303707983 445.99063818182015L1187.9905303707983 445.99063818182015ZM1259.1849748152426 454.7961937373757L1259.1849748152426 454.7961937373757L1258.7960859263535 480.40730484848683Q1258.7960859263535 506.99063818182015 1264.5738637041313 512.4073048484868L1264.5738637041313 512.4073048484868Q1265.379419259687 513.1850826262646 1265.379419259687 514.1850826262646L1265.379419259687 514.1850826262646Q1265.379419259687 517.1850826262646 1252.4905303707983 517.1850826262646Q1239.5738637041313 517.1850826262646 1238.7960859263535 509.6017492929313L1238.7960859263535 509.6017492929313Q1238.5738637041313 507.7961937373757 1238.5738637041313 502.1850826262646L1238.5738637041313 502.1850826262646L1239.379419259687 470.1850826262646Q1239.379419259687 468.7961937373757 1237.7960859263535 468.7961937373757L1237.7960859263535 468.7961937373757Q1228.1849748152426 468.7961937373757 1219.7960859263535 474.1850826262646Q1211.379419259687 479.6017492929313 1211.379419259687 487.99063818182015L1211.379419259687 487.99063818182015Q1211.379419259687 492.40730484848683 1213.7960859263535 495.40730484848683Q1216.1849748152426 498.40730484848683 1219.6849748152426 498.40730484848683Q1223.1849748152426 498.40730484848683 1225.4905303707983 496.9906381818202Q1227.7960859263535 495.6017492929313 1228.1849748152426 495.40730484848683L1228.1849748152426 495.40730484848683Q1231.5738637041313 495.7961937373757 1231.5738637041313 502.49063818182015Q1231.5738637041313 509.18508262626455 1225.379419259687 513.2961937373757Q1219.1849748152426 517.4073048484868 1212.379419259687 517.4073048484868Q1205.5738637041313 517.4073048484868 1200.6849748152426 514.9906381818201Q1195.7960859263537 512.6017492929313 1193.5738637041313 509.6017492929313Q1191.379419259687 506.6017492929313 1189.9905303707983 502.79619373737575L1189.9905303707983 502.79619373737575Q1188.5738637041313 498.18508262626455 1188.5738637041313 494.7961937373757L1188.5738637041313 494.7961937373757Q1188.5738637041313 480.7961937373757 1197.379419259687 472.40730484848683Q1206.1849748152426 463.99063818182015 1219.990530370798 460.40730484848683L1219.990530370798 460.40730484848683Q1238.1849748152426 456.7961937373757 1238.990530370798 453.7961937373757L1238.990530370798 453.7961937373757Q1239.5738637041313 451.6017492929313 1239.5738637041313 446.40730484848683L1239.5738637041313 446.40730484848683Q1239.5738637041313 435.7961937373757 1228.7960859263537 435.7961937373757L1228.7960859263537 435.7961937373757Q1224.1849748152426 435.7961937373757 1220.5738637041313 438.6850826262646Q1216.9905303707983 441.6017492929313 1216.9905303707983 445.99063818182015L1216.9905303707983 445.99063818182015L1218.1849748152426 450.7961937373757Q1217.7960859263535 454.1850826262646 1210.9905303707983 454.7961937373757L1210.9905303707983 454.7961937373757L1208.7960859263535 454.99063818182015Q1202.7960859263535 454.99063818182015 1199.2960859263535 451.99063818182015Q1195.7960859263537 448.99063818182015 1195.7960859263537 443.99063818182015L1195.7960859263537 443.99063818182015Q1195.7960859263537 440.7961937373757 1197.879419259687 436.90730484848683Q1199.990530370798 432.99063818182015 1203.1849748152426 430.6017492929313Q1206.379419259687 428.1850826262646 1213.0738637041313 426.2961937373757Q1219.7960859263535 424.40730484848683 1225.990530370798 424.40730484848683Q1232.1849748152426 424.40730484848683 1235.5738637041313 424.7961937373757Q1238.990530370798 425.1850826262646 1244.879419259687 426.6850826262646Q1250.7960859263535 428.1850826262646 1254.6849748152426 432.40730484848683Q1258.5738637041313 436.6017492929313 1258.879419259687 441.2961937373757Q1259.1849748152426 445.99063818182015 1259.1849748152426 454.7961937373757ZM1296.379419259687 400.40730484848683L1296.379419259687 400.40730484848683L1295.1849748152426 473.7961937373757Q1295.1849748152426 508.1850826262646 1297.379419259687 514.9906381818201L1297.379419259687 514.9906381818201Q1297.9905303707978 516.1850826262646 1297.9905303707978 517.4073048484868L1297.9905303707978 517.4073048484868Q1297.9905303707978 519.7961937373757 1292.1849748152426 519.7961937373757Q1286.379419259687 519.7961937373757 1279.2960859263537 516.9073048484868Q1272.1849748152426 513.9906381818201 1272.1849748152426 509.40730484848683L1272.1849748152426 509.40730484848683Q1276.1849748152426 481.40730484848683 1276.1849748152426 434.6017492929313L1276.1849748152426 434.6017492929313L1275.379419259687 403.99063818182015Q1274.990530370798 398.40730484848683 1273.0738637041313 394.40730484848683Q1271.1849748152426 390.40730484848683 1269.379419259687 389.1850826262646L1269.379419259687 389.1850826262646L1267.7960859263535 388.1850826262646Q1266.379419259687 387.40730484848683 1266.379419259687 386.40730484848683L1266.379419259687 386.40730484848683Q1266.379419259687 383.6017492929313 1275.0738637041313 379.49063818182015Q1283.7960859263535 375.40730484848683 1291.9905303707983 375.40730484848683L1291.9905303707983 375.40730484848683Q1295.1849748152426 375.40730484848683 1295.5738637041313 377.6017492929313L1295.5738637041313 377.6017492929313Q1296.379419259687 382.7961937373757 1296.379419259687 400.40730484848683ZM1409.5738637041313 403.99063818182015L1409.5738637041313 403.99063818182015L1410.379419259687 397.79619373737575Q1410.379419259687 388.6017492929313 1403.1849748152422 385.99063818182015L1403.1849748152422 385.99063818182015Q1397.5738637041313 384.1850826262646 1394.5738637041313 384.1850826262646L1394.5738637041313 384.1850826262646L1394.379419259687 384.1850826262646Q1388.379419259687 384.1850826262646 1383.9905303707978 386.1017492929313Q1379.5738637041313 387.99063818182015 1377.5738637041313 390.79619373737575L1377.5738637041313 390.79619373737575Q1373.379419259687 396.6017492929313 1372.7960859263535 402.99063818182015L1372.7960859263535 402.99063818182015Q1372.7960859263535 410.6017492929313 1379.5738637041313 416.1017492929313Q1386.379419259687 421.6017492929313 1396.0738637041313 425.6850826262646Q1405.7960859263535 429.7961937373757 1415.4905303707978 434.6017492929313Q1425.1849748152422 439.40730484848683 1431.9905303707978 448.40730484848683Q1438.7960859263535 457.40730484848683 1438.7960859263535 469.9906381818202L1438.7960859263535 469.9906381818202Q1438.7960859263535 494.6017492929313 1423.2960859263535 506.79619373737575Q1407.7960859263535 518.9906381818201 1388.0738637041313 518.9906381818201Q1368.379419259687 518.9906381818201 1355.4905303707978 510.1017492929313Q1342.5738637041313 501.1850826262646 1342.5738637041313 486.1850826262646L1342.5738637041313 486.1850826262646L1342.5738637041313 485.99063818182015Q1342.5738637041313 478.6017492929313 1344.879419259687 473.1017492929313Q1347.1849748152426 467.6017492929313 1350.379419259687 464.99063818182015L1350.379419259687 464.99063818182015Q1356.9905303707978 459.60174929293123 1362.379419259687 459.1850826262646L1362.379419259687 459.1850826262646L1364.7960859263535 458.99063818182015Q1370.379419259687 458.99063818182015 1374.9905303707978 461.68508262626455Q1379.5738637041313 464.40730484848683 1379.5738637041313 469.1850826262646L1379.5738637041313 469.1850826262646Q1379.5738637041313 471.6017492929313 1376.9905303707978 473.18508262626455Q1374.379419259687 474.7961937373757 1372.4905303707978 477.99063818182015Q1370.5738637041313 481.1850826262646 1370.379419259687 483.40730484848683L1370.379419259687 483.40730484848683L1369.9905303707978 485.6017492929313Q1369.9905303707978 497.7961937373757 1381.1849748152426 501.79619373737575L1381.1849748152426 501.79619373737575Q1385.1849748152426 503.1850826262646 1387.5738637041313 503.1850826262646L1387.5738637041313 503.1850826262646Q1398.5738637041313 503.1850826262646 1405.2960859263535 496.6017492929313Q1411.9905303707978 489.99063818182015 1411.9905303707978 479.7961937373757L1411.9905303707978 479.7961937373757Q1411.9905303707978 467.6017492929313 1401.5738637041313 459.99063818182015L1401.5738637041313 459.99063818182015Q1393.7960859263535 454.40730484848683 1384.6849748152426 450.6017492929313Q1375.5738637041313 446.7961937373757 1372.379419259687 445.1850826262646Q1369.1849748152426 443.6017492929313 1365.5738637041313 441.40730484848683Q1361.9905303707978 439.1850826262646 1357.5738637041313 435.1850826262646L1357.5738637041313 435.1850826262646Q1347.9905303707978 426.7961937373757 1347.9905303707978 412.49063818182015Q1347.9905303707978 398.1850826262646 1355.7960859263535 388.40730484848683L1355.7960859263535 388.40730484848683Q1369.7960859263535 370.6017492929313 1397.7960859263535 370.6017492929313L1397.7960859263535 370.6017492929313Q1412.5738637041313 370.6017492929313 1422.7960859263535 376.29619373737575Q1432.9905303707978 381.99063818182015 1432.9905303707978 391.99063818182015L1432.9905303707978 391.99063818182015Q1432.9905303707978 399.1850826262646 1428.879419259687 403.99063818182015Q1424.7960859263535 408.79619373737575 1418.379419259687 408.79619373737575L1418.379419259687 408.79619373737575Q1415.379419259687 408.79619373737575 1412.4905303707978 407.60174929293123Q1409.5738637041313 406.40730484848683 1409.5738637041313 403.99063818182015ZM1513.379419259687 491.7961937373757L1513.379419259687 491.7961937373757Q1513.379419259687 503.1850826262646 1504.2960859263535 510.6850826262646Q1495.1849748152422 518.1850826262646 1482.5738637041313 518.1850826262646L1482.5738637041313 518.1850826262646Q1464.1849748152426 518.1850826262646 1455.5738637041313 507.1017492929313Q1446.9905303707978 495.9906381818202 1446.9905303707978 476.99063818182015L1446.9905303707978 476.99063818182015Q1446.9905303707978 456.7961937373757 1455.9905303707983 441.1850826262646L1455.9905303707983 441.1850826262646Q1460.379419259687 433.1850826262646 1468.5738637041313 428.6017492929313Q1476.7960859263535 423.99063818182015 1487.7960859263535 423.99063818182015L1487.7960859263535 423.99063818182015Q1504.379419259687 423.99063818182015 1511.1849748152422 435.1850826262646L1511.1849748152422 435.1850826262646Q1513.9905303707983 439.7961937373757 1513.9905303707983 445.99063818182015L1513.9905303707983 445.99063818182015Q1513.9905303707983 455.6017492929313 1505.9905303707983 460.40730484848683L1505.9905303707983 460.40730484848683Q1502.7960859263535 462.1850826262646 1500.0738637041313 462.1850826262646Q1497.379419259687 462.1850826262646 1495.6849748152422 461.90730484848683Q1493.9905303707978 461.6017492929313 1491.1849748152422 459.1850826262646Q1488.379419259687 456.7961937373757 1488.379419259687 452.6017492929313L1488.379419259687 452.6017492929313Q1488.5738637041313 450.40730484848683 1491.7960859263535 448.99063818182015L1491.7960859263535 448.99063818182015Q1494.7960859263535 447.1850826262646 1494.7960859263535 442.6017492929313L1494.7960859263535 442.6017492929313Q1494.7960859263535 434.7961937373757 1485.1849748152426 434.7961937373757L1485.1849748152426 434.7961937373757Q1482.7960859263535 434.7961937373757 1479.4905303707978 436.90730484848683Q1476.1849748152426 438.99063818182015 1473.9905303707978 442.2961937373757Q1471.7960859263535 445.6017492929313 1469.879419259687 452.6850826262646Q1467.9905303707978 459.7961937373757 1467.9905303707978 466.2961937373757Q1467.9905303707978 472.7961937373757 1468.4905303707983 476.1017492929313Q1468.9905303707978 479.40730484848683 1470.6849748152422 485.1017492929313Q1472.379419259687 490.7961937373757 1477.0738637041313 494.40730484848683Q1481.7960859263535 497.99063818182015 1488.7960859263535 497.99063818182015L1488.7960859263535 497.99063818182015Q1497.1849748152426 497.99063818182015 1503.5738637041313 490.99063818182015L1503.5738637041313 490.99063818182015Q1506.1849748152426 488.1850826262646 1507.7960859263535 484.1850826262646L1507.7960859263535 484.1850826262646Q1508.5738637041313 482.60174929293123 1509.7960859263535 482.60174929293123L1509.7960859263535 482.60174929293123Q1511.5738637041313 482.60174929293123 1512.4905303707978 485.90730484848683Q1513.379419259687 489.1850826262646 1513.379419259687 491.7961937373757ZM1547.7960859263535 407.40730484848683L1547.7960859263535 407.40730484848683L1547.5738637041313 426.7961937373757Q1547.5738637041313 427.99063818182015 1548.379419259687 427.99063818182015Q1549.1849748152422 427.99063818182015 1549.9905303707978 427.40730484848683L1549.9905303707978 427.40730484848683Q1554.9905303707978 423.99063818182015 1565.7960859263535 423.99063818182015L1565.7960859263535 423.99063818182015Q1583.9905303707978 423.99063818182015 1590.9905303707978 436.40730484848683L1590.9905303707978 436.40730484848683Q1593.5738637041313 440.99063818182015 1593.5738637041313 448.6017492929313Q1593.5738637041313 456.1850826262646 1592.6849748152426 469.6017492929313Q1591.7960859263535 482.99063818182015 1591.7960859263535 488.6017492929313L1591.7960859263535 488.6017492929313Q1591.7960859263535 508.1850826262646 1597.379419259687 514.6017492929313L1597.379419259687 514.6017492929313Q1598.379419259687 515.6017492929313 1598.379419259687 516.6017492929313L1598.379419259687 516.6017492929313Q1598.379419259687 518.6017492929313 1589.7960859263535 518.6017492929313L1589.7960859263535 518.6017492929313Q1566.5738637041313 518.6017492929313 1566.5738637041313 496.9906381818202L1566.5738637041313 496.9906381818202Q1566.5738637041313 488.6017492929313 1570.5738637041313 473.40730484848683Q1574.5738637041313 458.1850826262646 1574.5738637041313 450.99063818182015Q1574.5738637041313 443.7961937373757 1571.1849748152422 439.90730484848683Q1567.7960859263535 435.99063818182015 1561.7960859263535 435.99063818182015Q1555.7960859263535 435.99063818182015 1552.2960859263535 438.6017492929313Q1548.7960859263535 441.1850826262646 1547.9905303707978 443.99063818182015L1547.9905303707978 443.99063818182015L1547.379419259687 446.6017492929313Q1547.1849748152426 450.40730484848683 1547.1849748152426 470.7961937373757Q1547.1849748152426 491.1850826262646 1548.1849748152426 497.2961937373757Q1549.1849748152422 503.40730484848683 1549.1849748152422 504.1850826262646L1549.1849748152422 504.1850826262646Q1549.1849748152422 509.9906381818202 1541.379419259687 514.4906381818201Q1533.5738637041313 518.9906381818201 1525.9905303707978 518.9906381818201L1525.9905303707978 518.9906381818201Q1523.1849748152426 518.9906381818201 1523.1849748152426 515.7961937373757L1523.1849748152426 515.7961937373757L1523.5738637041313 511.99063818182015Q1527.9905303707978 478.40730484848683 1527.9905303707978 439.1850826262646L1527.9905303707978 439.1850826262646Q1527.9905303707978 423.99063818182015 1526.7960859263535 408.40730484848683L1526.7960859263535 408.40730484848683L1526.5738637041313 403.99063818182015Q1526.1849748152426 398.40730484848683 1524.2960859263535 394.40730484848683Q1522.379419259687 390.40730484848683 1520.7960859263535 389.1850826262646L1520.7960859263535 389.1850826262646L1518.9905303707978 388.1850826262646Q1517.5738637041313 387.40730484848683 1517.5738637041313 386.40730484848683L1517.5738637041313 386.40730484848683Q1517.5738637041313 383.6017492929313 1526.9905303707978 379.49063818182015Q1536.379419259687 375.40730484848683 1541.4905303707978 375.40730484848683Q1546.5738637041313 375.40730484848683 1546.9905303707978 377.6017492929313L1546.9905303707978 377.6017492929313Q1547.7960859263535 387.79619373737575 1547.7960859263535 407.40730484848683ZM1623.9905303707978 439.40730484848683L1623.9905303707978 439.40730484848683Q1618.7960859263535 439.6017492929313 1616.4905303707978 439.6850826262646Q1614.1849748152426 439.7961937373757 1614.1849748152426 438.6017492929313Q1614.1849748152426 437.40730484848683 1615.379419259687 436.1850826262646L1615.379419259687 436.1850826262646Q1628.1849748152422 424.40730484848683 1658.5738637041313 424.40730484848683L1658.5738637041313 424.40730484848683Q1668.9905303707978 424.40730484848683 1674.9905303707978 426.1850826262646L1674.9905303707978 426.1850826262646L1676.9905303707978 426.7961937373757Q1679.379419259687 427.7961937373757 1679.379419259687 428.99063818182015L1679.379419259687 428.99063818182015Q1679.379419259687 429.99063818182015 1677.9905303707978 430.6017492929313L1677.9905303707978 430.6017492929313Q1672.5738637041313 432.1850826262646 1667.5738637041313 435.6850826262646Q1662.5738637041313 439.1850826262646 1662.5738637041313 440.6017492929313L1662.5738637041313 440.6017492929313L1663.7960859263535 441.99063818182015Q1670.1849748152422 445.6017492929313 1673.6849748152422 453.40730484848683Q1677.1849748152426 461.1850826262646 1677.5738637041313 467.1850826262646L1677.5738637041313 467.1850826262646L1677.9905303707978 473.40730484848683Q1677.9905303707978 493.1850826262646 1666.9905303707978 505.99063818182015Q1655.9905303707983 518.7961937373757 1636.9905303707978 518.7961937373757L1636.9905303707978 518.7961937373757Q1627.379419259687 518.7961937373757 1620.379419259687 515.4073048484868Q1613.379419259687 511.99063818182015 1610.0738637041313 507.6850826262646Q1606.7960859263535 503.40730484848683 1604.7960859263535 497.99063818182015L1604.7960859263535 497.99063818182015Q1602.379419259687 490.6017492929313 1602.379419259687 482.6850826262646Q1602.379419259687 474.7961937373757 1605.0738637041313 466.7961937373757Q1607.7960859263535 458.7961937373757 1611.2960859263535 454.99063818182015Q1614.7960859263535 451.1850826262646 1619.1849748152426 448.7961937373757L1619.1849748152426 448.7961937373757Q1624.7960859263535 445.7961937373757 1628.1849748152422 445.7961937373757Q1631.5738637041313 445.7961937373757 1631.5738637041313 447.1850826262646L1631.5738637041313 447.1850826262646L1630.379419259687 449.1850826262646Q1625.9905303707978 454.40730484848683 1624.0738637041313 462.7961937373757Q1622.1849748152426 471.1850826262646 1622.1849748152426 477.6850826262646Q1622.1849748152426 484.1850826262646 1623.7960859263535 490.6017492929313Q1625.379419259687 496.9906381818202 1627.379419259687 500.1017492929313Q1629.379419259687 503.1850826262646 1631.9905303707978 504.79619373737575L1631.9905303707978 504.79619373737575Q1635.7960859263535 507.1850826262646 1639.9905303707978 507.1850826262646Q1644.1849748152426 507.1850826262646 1648.1849748152426 503.90730484848683Q1652.1849748152426 500.6017492929313 1653.9905303707978 495.1850826262646L1653.9905303707978 495.1850826262646Q1657.5738637041313 485.1850826262646 1657.5738637041313 474.6017492929313L1657.5738637041313 474.6017492929313Q1657.5738637041313 457.7961937373757 1649.0738637041313 448.6017492929313Q1640.5738637041313 439.40730484848683 1623.9905303707978 439.40730484848683ZM1707.9905303707978 439.40730484848683L1707.9905303707978 439.40730484848683Q1702.7960859263535 439.6017492929313 1700.4905303707978 439.6850826262646Q1698.1849748152426 439.7961937373757 1698.1849748152426 438.6017492929313Q1698.1849748152426 437.40730484848683 1699.3794192596865 436.1850826262646L1699.3794192596865 436.1850826262646Q1712.1849748152422 424.40730484848683 1742.5738637041313 424.40730484848683L1742.5738637041313 424.40730484848683Q1752.9905303707978 424.40730484848683 1758.9905303707978 426.1850826262646L1758.9905303707978 426.1850826262646L1760.9905303707978 426.7961937373757Q1763.379419259687 427.7961937373757 1763.379419259687 428.99063818182015L1763.379419259687 428.99063818182015Q1763.379419259687 429.99063818182015 1761.9905303707978 430.6017492929313L1761.9905303707978 430.6017492929313Q1756.5738637041313 432.1850826262646 1751.5738637041313 435.6850826262646Q1746.5738637041313 439.1850826262646 1746.5738637041313 440.6017492929313L1746.5738637041313 440.6017492929313L1747.7960859263535 441.99063818182015Q1754.1849748152422 445.6017492929313 1757.6849748152422 453.40730484848683Q1761.1849748152422 461.1850826262646 1761.5738637041313 467.1850826262646L1761.5738637041313 467.1850826262646L1761.9905303707978 473.40730484848683Q1761.9905303707978 493.1850826262646 1750.9905303707978 505.99063818182015Q1739.9905303707978 518.7961937373757 1720.9905303707978 518.7961937373757L1720.9905303707978 518.7961937373757Q1711.379419259687 518.7961937373757 1704.379419259687 515.4073048484868Q1697.379419259687 511.99063818182015 1694.0738637041313 507.6850826262646Q1690.7960859263535 503.40730484848683 1688.7960859263535 497.99063818182015L1688.7960859263535 497.99063818182015Q1686.379419259687 490.6017492929313 1686.379419259687 482.6850826262646Q1686.379419259687 474.7961937373757 1689.0738637041313 466.7961937373757Q1691.7960859263535 458.7961937373757 1695.2960859263535 454.99063818182015Q1698.7960859263535 451.1850826262646 1703.1849748152422 448.7961937373757L1703.1849748152422 448.7961937373757Q1708.7960859263535 445.7961937373757 1712.1849748152422 445.7961937373757Q1715.5738637041313 445.7961937373757 1715.5738637041313 447.1850826262646L1715.5738637041313 447.1850826262646L1714.379419259687 449.1850826262646Q1709.9905303707983 454.40730484848683 1708.0738637041313 462.7961937373757Q1706.1849748152426 471.1850826262646 1706.1849748152426 477.6850826262646Q1706.1849748152426 484.1850826262646 1707.7960859263535 490.6017492929313Q1709.379419259687 496.9906381818202 1711.379419259687 500.1017492929313Q1713.379419259687 503.1850826262646 1715.9905303707978 504.79619373737575L1715.9905303707978 504.79619373737575Q1719.7960859263535 507.1850826262646 1723.9905303707978 507.1850826262646Q1728.1849748152422 507.1850826262646 1732.1849748152422 503.90730484848683Q1736.1849748152422 500.6017492929313 1737.9905303707978 495.1850826262646L1737.9905303707978 495.1850826262646Q1741.5738637041313 485.1850826262646 1741.5738637041313 474.6017492929313L1741.5738637041313 474.6017492929313Q1741.5738637041313 457.7961937373757 1733.0738637041313 448.6017492929313Q1724.5738637041313 439.40730484848683 1707.9905303707978 439.40730484848683ZM1795.3794192596865 400.40730484848683L1795.3794192596865 400.40730484848683L1794.1849748152426 473.7961937373757Q1794.1849748152426 508.1850826262646 1796.379419259687 514.9906381818201L1796.379419259687 514.9906381818201Q1796.9905303707978 516.1850826262646 1796.9905303707978 517.4073048484868L1796.9905303707978 517.4073048484868Q1796.9905303707978 519.7961937373757 1791.1849748152422 519.7961937373757Q1785.379419259687 519.7961937373757 1778.2960859263535 516.9073048484868Q1771.1849748152422 513.9906381818201 1771.1849748152422 509.40730484848683L1771.1849748152422 509.40730484848683Q1775.1849748152422 481.40730484848683 1775.1849748152422 434.6017492929313L1775.1849748152422 434.6017492929313L1774.3794192596865 403.99063818182015Q1773.9905303707978 398.40730484848683 1772.0738637041313 394.40730484848683Q1770.1849748152422 390.40730484848683 1768.379419259687 389.1850826262646L1768.379419259687 389.1850826262646L1766.7960859263535 388.1850826262646Q1765.379419259687 387.40730484848683 1765.379419259687 386.40730484848683L1765.379419259687 386.40730484848683Q1765.379419259687 383.6017492929313 1774.0738637041313 379.49063818182015Q1782.7960859263535 375.40730484848683 1790.9905303707978 375.40730484848683L1790.9905303707978 375.40730484848683Q1794.1849748152426 375.40730484848683 1794.5738637041313 377.6017492929313L1794.5738637041313 377.6017492929313Q1795.3794192596865 382.7961937373757 1795.3794192596865 400.40730484848683Z " fill="#ffffff" transform="matrix(0.48692520008788204,0,0,0.486925200087882,0,83.02524189588598)"/></g></svg>